<svg xmlns="http://www.w3.org/2000/svg" viewBox="0 0 32 32" fill="none">
  <rect width="32" height="32" rx="8" fill="#6366f1"/>
  <path d="M8 12a1 1 0 011-1h14a1 1 0 011 1v12a1 1 0 01-1 1H9a1 1 0 01-1-1V12z" fill="white" fill-opacity="0.2"/>
  <path d="M8 12a1 1 0 011-1h14a1 1 0 011 1v4H8v-4z" fill="white" fill-opacity="0.3"/>
  <rect x="12" y="7" width="2" height="5" rx="1" fill="white"/>
  <rect x="18" y="7" width="2" height="5" rx="1" fill="white"/>
  <rect x="11" y="19" width="3" height="3" rx="0.5" fill="white"/>
  <rect x="15.5" y="19" width="3" height="3" rx="0.5" fill="white"/>
  <rect x="20" y="19" width="0" height="3" rx="0.5" fill="white"/>
</svg>
